<svg width="13" height="13" viewBox="0 0 13 13" fill="none" xmlns="http://www.w3.org/2000/svg">
<path d="M6.58331 7.66667C10.0333 7.66667 12.8333 8.975 12.8333 10.5833V12.6667H0.333313V10.5833C0.333313 8.975 3.13331 7.66667 6.58331 7.66667ZM12 10.5833C12 9.43334 9.57498 8.5 6.58331 8.5C3.59165 8.5 1.16665 9.43334 1.16665 10.5833V11.8333H12V10.5833ZM6.58331 0.166672C7.35686 0.166672 8.09873 0.473963 8.64571 1.02094C9.19269 1.56792 9.49998 2.30979 9.49998 3.08334C9.49998 3.85689 9.19269 4.59875 8.64571 5.14573C8.09873 5.69271 7.35686 6 6.58331 6C5.80976 6 5.0679 5.69271 4.52092 5.14573C3.97394 4.59875 3.66665 3.85689 3.66665 3.08334C3.66665 2.30979 3.97394 1.56792 4.52092 1.02094C5.0679 0.473963 5.80976 0.166672 6.58331 0.166672ZM6.58331 1.00001C6.03078 1.00001 5.50087 1.2195 5.11017 1.6102C4.71947 2.0009 4.49998 2.5308 4.49998 3.08334C4.49998 3.63587 4.71947 4.16578 5.11017 4.55648C5.50087 4.94718 6.03078 5.16667 6.58331 5.16667C7.13585 5.16667 7.66575 4.94718 8.05645 4.55648C8.44715 4.16578 8.66665 3.63587 8.66665 3.08334C8.66665 2.5308 8.44715 2.0009 8.05645 1.6102C7.66575 1.2195 7.13585 1.00001 6.58331 1.00001Z" fill="white"/>
</svg>
